<svg xmlns="http://www.w3.org/2000/svg" xmlns:xlink="http://www.w3.org/1999/xlink" width="65" height="65" viewBox="0 0 65 65">
  <defs>
    <rect id="rect-1" width="65" height="65" x="0" y="0"/>
    <mask id="mask-2" maskContentUnits="userSpaceOnUse" maskUnits="userSpaceOnUse">
      <rect width="65" height="65" x="0" y="0" fill="black"/>
      <use fill="white" xlink:href="#rect-1"/>
    </mask>
    <path id="path-3" fill-rule="evenodd" d="M24.3999939 48.69999695h-17.5V1h42.29998779l5.7000122 23.8999939h-30.5v23.80000305z"/>
    <mask id="mask-4" maskContentUnits="userSpaceOnUse" maskUnits="userSpaceOnUse">
      <rect width="65" height="65" x="0" y="0" fill="black"/>
      <use fill="white" xlink:href="#path-3"/>
    </mask>
  </defs>
  <g>
    <use fill="none" xlink:href="#rect-1"/>
    <g mask="url(#mask-2)">
      <g>
        <use fill="none" xlink:href="#path-3"/>
        <g mask="url(#mask-4)">
          <path fill="rgb(77,194,241)" fill-rule="evenodd" d="M39.80001831 14.8999939c.5 0 .90002441-.19999695 1.2999878-.5.30004882-.2999878.5-.7999878.5-1.2999878V6.30000305c0-.5-.19995118-.90000915-.5-1.30000305-.2999878-.30000305-.7999878-.5-1.2999878-.5h-27c-.5 0-.89996338.19999695-1.2999878.5-.29998779.30000305-.5.80000305-.5 1.30000305V13c0 .5.20001221.8999939.5 1.19999695.2999878.30000305.7999878.5 1.2999878.5h27v.19999695zm0-1.09999085h-27c-.2999878 0-.5 0-.5-.30000305-.10003662-.09999084-.2000122-.2999878-.2000122-.5V6.30000305c0-.19999695.09997558-.3999939.2000122-.5.09997559-.09999084.2999878-.19999695.5-.19999695h27c.2000122 0 .39996338.1000061.5.19999695.09997559.1000061.2000122.30000305.2000122.5v6.80000305c0 .19999695-.10003661.3999939-.2000122.5-.10003662.1000061-.2999878.19999695-.5.19999695zm-4.60003662-1.1000061h3.5c.2999878 0 .5-.19999695.5-.5v-3.5c0-.30000305-.2000122-.5-.5-.5h-3.5c-.2999878 0-.5.19999695-.5.5v3.5c0 .30000305.2000122.5.5.5zm.60003662-1h2.5v-2.5h-2.5v2.5zm4 6.1000061h-27c-.5 0-1 .19999695-1.2000122.5-.2999878.3999939-.5.80000305-.5 1.30000305v6.69999695c0 .5.2000122 1 .5 1.30000305.29998779.30000306.7000122.5 1.2000122.5h27c.5 0 1-.19999694 1.2999878-.5.29998779-.40000915.5-.80000305.5-1.30000305V19.6000061c0-.5-.20001221-1-.5-1.30000305-.40002442-.30000305-.7999878-.5-1.2999878-.5zm-27 1h27c.2000122 0 .39996338.1000061.5.19999695.09997559.1000061.2000122.30000305.2000122.5v6.69999695c0 .2000122-.10003661.40000915-.2000122.5-.10003662.1000061-.2999878.2000122-.5.2000122h-27c-.2000122 0-.40002441-.1000061-.5-.2000122-.10003662-.09999085-.2000122-.2999878-.2000122-.5V19.5c0-.19999695.09997558-.3999939.2000122-.5.09997559-.09999084.2999878-.19999695.5-.19999695zm22.39996338 7.1000061h3.5c.2999878 0 .5-.19999694.5-.5v-3.5c0-.30000305-.2000122-.5-.5-.5h-3.5c-.2999878 0-.5.19999695-.5.5v3.5c0 .30000306.2000122.5.5.5zm.60003662-1v-2.5h2.5v2.5h-2.5zm-24.2999878 6.6000061c.40002442-.29998778.7999878-.5 1.2999878-.5h26.90002441c.5 0 1 .20001222 1.2999878.5.2999878.3999939.5.7999878.5 1.2999878v6.7000122c0 .5-.2000122 1-.5 1.2999878-.40002442.30001831-.7999878.5-1.2999878.5h-27c-.4000244 0-.9000244-.19998169-1.2000122-.5-.2999878-.3999939-.5-.7999878-.5-1.2999878v-6.7000122c0-.5.2000122-1 .5-1.2999878zm28.2999878.5h-27c-.2000122 0-.40002441.10000611-.5.20001222-.10003662.09997558-.2000122.29998779-.2000122.5v6.69998169c0 .2000122.09997558.3999939.2000122.5.09997559.1000061.2999878.2000122.5.2000122h27c.2000122 0 .39996338-.1000061.5-.2000122.09997559-.1000061.2000122-.2999878.2000122-.5v-6.6000061c0-.1999817-.10003661-.3999939-.2000122-.5-.10003662-.1999817-.2999878-.2999878-.5-.2999878zm-4.60003662 7.0999756h3.5c.2999878 0 .5-.20001221.5-.5v-3.5c0-.2999878-.2000122-.5-.5-.5h-3.5c-.2999878 0-.5.2000122-.5.5v3.5c0 .29998779.2000122.5.5.5zm.60003662-1h2.5v-2.5h-2.5v2.5z"/>
        </g>
      </g>
      <path fill="rgb(48,56,59)" fill-rule="evenodd" d="M56.30001831 38.59999084c.5 0 .90002441-.19998168 1.2999878-.5.30004882-.29998779.5-.79998779.5-1.29998779v-6.7000122c0-.5-.19995118-.8999939-.5-1.2999878-.2999878-.30000305-.7999878-.5-1.2999878-.5h-27c-.5 0-.89996338.19999695-1.2999878.5-.29998779.2999878-.5.7999878-.5 1.2999878v6.7000122c0 .5.20001221.8999939.5 1.2000122.2999878.2999878.7999878.5 1.2999878.5l27 .0999756zm0-.99996948h-27c-.2999878 0-.40002441-.1000061-.5-.2000122-.10003662-.1000061-.2000122-.2999878-.2000122-.5v-6.6999817c0-.2000122.09997558-.4000244.2000122-.5.09997559-.1000061.2999878-.2000122.5-.2000122h27c.2000122 0 .39996338.1000061.5.2000122.09997559.0999756.2000122.2999878.2000122.5v6.6999817c0 .2000122-.10003661.3999939-.2000122.5-.10003662.1000061-.2999878.2000122-.5.2000122zm-4.60003662-1.1000061h3.5c.2999878 0 .5-.2000122.5-.5v-3.5c0-.2999878-.2000122-.5-.5-.5h-3.5c-.2999878 0-.5.2000122-.5.5v3.5c0 .2999878.2000122.5.5.5zm.60003662-1h2.5v-2.5h-2.5v2.5zm4 6h-27c-.5 0-1 .2999878-1.2000122.5-.2999878.3999939-.5.7999878-.5 1.2999878v6.7000122c0 .5.2000122 1 .5 1.2999878.29998779.3000183.7000122.5 1.2000122.5h27c.5 0 1-.1999817 1.2999878-.5.29998779-.3999939.5-.7999878.5-1.2999878v-6.7000122c0-.5-.20001221-1-.5-1.2999878-.40002442-.2999878-.7999878-.5-1.2999878-.5zm-27 1.09997558h27c.2000122 0 .39996338.1000061.5.2999878.09997559.1000061.2000122.3000183.2000122.5v6.7000122c0 .20001221-.10003661.3999939-.2000122.5-.10003662.1000061-.2999878.20001221-.5.20001221h-27c-.2000122 0-.40002441 0-.5-.3000183-.10003662-.10000611-.2000122-.2999878-.2000122-.5v-6.6999817c0-.2000122.09997558-.40002441.2000122-.5.09997559-.1000061.2999878-.2000122.5-.2000122zm22.39996338 7.1000061h3.5c.2999878 0 .5-.2000122.5-.5v-3.5c0-.29998778-.2000122-.5-.5-.5h-3.5c-.2999878 0-.5.20001222-.5.5v3.5c0 .2999878.2000122.5.5.5zm.60003662-1v-2.5h2.5v2.5h-2.5zm-24.2999878 6.60000611c.40002442-.2999878.7999878-.5 1.2999878-.5h26.90002441c.5 0 1 .2000122 1.2999878.5.2999878.3999939.5.7999878.5 1.2999878v6.7000122c0 .5-.2000122 1-.5 1.2999878-.40002442.3000183-.7999878.5-1.2999878.5h-27c-.4000244 0-.9000244-.1999817-1.2000122-.5-.2999878-.3999939-.5-.7999878-.5-1.2999878v-6.7000122c0-.5.2000122-1 .5-1.2999878zm28.2999878.5h-27c-.2000122 0-.40002441.1000061-.5.2000122-.10003662.0999756-.2000122.2999878-.2000122.5v6.6999817c0 .2000122.09997558.3999939.2000122.5.09997559.1000061.2999878.2000122.5.2000122h27c.2000122 0 .39996338-.1000061.5-.2000122.09997559-.1000061.2000122-.2999878.2000122-.5v-6.6999817c0-.2000122-.10003661-.4000244-.2000122-.5-.10003662-.1000061-.2999878-.2000122-.5-.2000122zm-4.60003662 7.1000061h3.5c.2999878 0 .5-.2000122.5-.5v-3.5c0-.29998779-.2000122-.5-.5-.5h-3.5c-.2999878 0-.5.20001221-.5.5v3.5c0 .2999878.2000122.5.5.5zm.60003662-1h2.5v-2.5h-2.5v2.5z"/>
    </g>
  </g>
</svg>