<svg xmlns="http://www.w3.org/2000/svg" xmlns:xlink="http://www.w3.org/1999/xlink" width="65" height="65" viewBox="0 0 65 65">
  <defs>
    <rect id="rect-1" width="65" height="65" x="0" y="0"/>
    <mask id="mask-2" maskContentUnits="userSpaceOnUse" maskUnits="userSpaceOnUse">
      <rect width="65" height="65" x="0" y="0" fill="black"/>
      <use fill="white" xlink:href="#rect-1"/>
    </mask>
  </defs>
  <g>
    <use fill="none" xlink:href="#rect-1"/>
    <g mask="url(#mask-2)">
      <path fill="rgb(2,2,3)" fill-rule="evenodd" d="M37.3962437 24.11447472c.30904616-.3879082.77261245-.69823446 1.39070477-.7758164l9.58039266-1.31888772h.07726007c.54083225-.07758156 1.08165861.07758157 1.46796484.3879082.38630622.31032663.69535238.7758164.77261245 1.31888772v.07758193l5.17650403 37.31676847v.07758046c.07726301.54307206-.07726302 1.08614413-.38630623 1.47405233-.30904321.3879082-.77261245.69823594-1.31344176.7758164h-.07726007l-9.65765566 1.31888845h-.07726007c-.54083226.07758046-1.08165861-.07758341-1.46796484-.3879082-.38630623-.31032773-.69535239-.77581639-.77261245-1.31888845v-.07758046l-5.09924397-37.3167692v-.07758194c-.07726006-.54307207.07726302-1.0861434.38630623-1.4740516zm11.20288352-.93097953l-9.73491868 1.31888772c-.23178315 0-.4635663.15516313-.5408293.310327-.15452309.15516314-.23178315.3879082-.15452309.62065253l5.09924397 37.39435114c0 .23274433.15452308.46548865.3090432.54307207.15452309.1551609.38630624.23274432.61809233.1551609l9.73491573-1.3188855c.23178315 0 .46356924-.15516386.54082931-.31032773.15452013-.15516388.23178315-.3879082.15452013-.62065253l-5.02198094-37.39435077c0-.23274507-.15452014-.46548976-.30904322-.54307133-.23178314-.1551635-.46356924-.23274506-.69534944-.1551635zm-.77261245 26.45533674c.07726007.31032774-.15452308.62065548-.4635663.62065548-.30904615.07758045-.61809231-.15516683-.61809231-.46549161l-2.7041436-19.78331657c-.07726006-.31032626.15452309-.62065252.46356925-.62065252.30904321-.07758193.61808937.1551624.61808937.46548865l2.70414359 19.78331657z"/>
      <g>
        <path fill="rgb(77,76,155)" fill-rule="evenodd" d="M35.0784069 23.72656689c-.38630623-.3879082-.9271326-.62065326-1.4679619-.62065326h-9.7349172c-.54082932 0-1.08165715.23274506-1.39070331.62065326-.38630623-.31032663-.84987252-.5430717-1.39070256-.5430717h-9.96670017c-.54082857 0-1.08165714.23274507-1.3907022.62065326-.38630623.31032627-.61808993.8533976-.61808993 1.39646966v37.78225934c0 .5430691.2317837 1.08614118.61808993 1.39646892.38630623.3879082.84987363.62065252 1.3907022.62065252h9.81217856c.54082783 0 1.08165788-.23274433 1.39070256-.62065252.38630623.3879082.849874.62065252 1.39070183.62065252h9.81218022c.54082636 0 1.08165567-.23274433 1.4679619-.62065252.38630622-.3879082.61808937-.85339981.61808937-1.47405233V25.2006181c.07726301-.54307207-.15452308-1.0861434-.5408293-1.47405122zM21.86673511 62.90529404c0 .23274432-.07726154.46548865-.23178315.62065252-.15452382.15516387-.38630696.23274432-.61809158.23274432h-9.88943827c-.23178388 0-.4635674-.07758045-.6180901-.23274432-.15452253-.15516387-.2317837-.3879082-.2317837-.62065252V25.2006181c0-.23274506.07726117-.46549013.2317837-.62065326.1545227-.15516313.38630622-.23274507.6180901-.23274507h9.8121782c.23178315 0 .4635663.07758194.61809011.23274507.15452308.15516313.23178315.3879082.23178315.62065326v37.70467593h.07726154zm12.43906227.62065252c.15452013-.15516387.2317802-.3879082.2317802-.62065252V25.2006181c0-.23274506-.07726007-.46549013-.2317802-.62065326-.15452603-.15516313-.38630623-.23274507-.61809232-.23274507h-9.81217728c-.23178462 0-.46356777.07758194-.61809085.23274507-.1545216.15516313-.23178314.3879082-.23178314.62065326v37.70467593c0 .23274432.07726154.46548865.23178314.62065252.15452308.15516387.38630623.23274432.61809085.23274432h9.81217728c.23178609 0 .46356629-.07758045.61809232-.23274432z"/>
        <path fill="rgb(77,76,155)" fill-rule="evenodd" d="M26.57967112 29.93309782c-.30904498 0-.54082872.23274492-.54082872.54307147v20.32638952c0 .31032656.23178374.54307148.54082872.54307148s.54082872-.23274492.54082872-.54307148V30.55375093c0-.3879082-.23178374-.62065311-.54082872-.62065311z"/>
        <path fill="rgb(77,76,155)" fill-rule="evenodd" d="M30.9835621 29.93309782c-.30904498 0-.54082871.23274492-.54082871.54307147v27.07599215c0 .31032655.23178373.54307147.54082871.54307147.30904499 0 .54082872-.23274492.54082872-.54307147v-26.9984105c0-.3879082-.23178373-.62065312-.54082872-.62065312z"/>
        <path fill="rgb(77,76,155)" fill-rule="evenodd" d="M16.07214175 29.93309782c-.30904498 0-.54082871.23274492-.54082871.54307147v20.32638952c0 .31032656.23178373.54307148.54082871.54307148s.54082872-.23274492.54082872-.54307148V30.55375093c0-.3879082-.23178374-.62065311-.54082872-.62065311z"/>
      </g>
    </g>
  </g>
</svg>