<svg xmlns="http://www.w3.org/2000/svg" xmlns:xlink="http://www.w3.org/1999/xlink" width="65" height="65" viewBox="0 0 65 65">
  <defs>
    <rect id="rect-1" width="65" height="65" x="0" y="0"/>
    <mask id="mask-2" maskContentUnits="userSpaceOnUse" maskUnits="userSpaceOnUse">
      <rect width="65" height="65" x="0" y="0" fill="black"/>
      <use fill="white" xlink:href="#rect-1"/>
    </mask>
  </defs>
  <g>
    <use fill="none" xlink:href="#rect-1"/>
    <g mask="url(#mask-2)">
      <path fill="rgb(244,153,26)" fill-rule="evenodd" d="M25 64.9H13.7V44.4c0-.8.1-1.6.2-2.4l1.8.3c-.1.6-.1 1.3-.1 2.1v18.7h7.6V45.5c0-1.4.2-2.5.6-3.5l1.7.7c-.3.7-.4 1.7-.4 2.8v19.4H25z"/>
      <path fill="rgb(244,153,26)" fill-rule="evenodd" d="M62.9 64.9H51.6V45.5c0-4.3-2.1-4.9-3.9-4.9-1.8 0-3.9.6-3.9 4.9V65H32.6V45.5c0-3.8-1.7-4.4-2.2-4.6l.6-1.7c2.3.8 3.4 3 3.4 6.4v17.6H42V45.5c0-5.6 3.1-6.7 5.7-6.7s5.7 1.2 5.7 6.7v17.6H61V44.4c0-3.8-1.3-6.5-3.8-8.4-2.3-1.8-5.5-2.7-9.4-2.7-4.3 0-7.2 1-8.8 2.9l-.7.9-.7-.8c-.3-.3-.7-.7-1-.9l1.1-1.5c.2.2.4.3.6.5 2-1.9 5.2-2.9 9.6-2.9 4.4 0 8 1 10.6 3 3 2.2 4.6 5.6 4.6 9.9v20.5h-.2z"/>
      <path fill="rgb(30,30,28)" fill-rule="evenodd" d="M6.4 59.69999962l-1.8000002-4.09999848C3.19999996 52.39999847 1.79999999 48.99999694 3.3000001 44.3c-.2000003-3.39999962-.10000015-5.90000153 0-7.29999924h-.8000002L1.9 35.3l.70000005-.40000153C17.10000076 26.49999981 25.00000038 24.89999943 42.10000076 22.8L42.9 22.69999962l.5 1.80000019-8.89999771 6.50000095C35.4 31.69999962 36.60000076 32.8 37.4 33.69999962l.5.5L37.50000229 34.8C32.69999924 42.59999924 23.4 45.8 14.49999943 42.69999962L13.9 42.49999886v-.5q-.30000114-2.39999772-.3000002-4.79999924l-7.8999996-.10000038c-.1000004 1.40000152-.2000003 3.80000114 0 7.20000076C6.9 48.39999847 6.8000001 52.59999924 6.60000028 55.89999657L6.4 59.69999962zm29.10000229-25.19999886C31.09999886 41.10000114 23.4 43.69999962 15.60000076 41.19999962 15.50000038 39.50000076 15.4 37.90000038 15.4 36.20000152V35.3l-9.5999999-.09999847C17.9 28.50000076 25.09999886 26.8 39.50000229 24.90000038l-8.20000267 6 1.0000019.80000115c0 .09999847 1.89999772 1.5 3.20000077 2.79999923zm-31.00000239 13C4.4 48.70000153 4.4999999 49.8 4.8000001 50.9000023c0-1.10000229-.0999999-2.20000076-.3000002-3.40000153z"/>
    </g>
  </g>
</svg>