<svg xmlns="http://www.w3.org/2000/svg" xmlns:xlink="http://www.w3.org/1999/xlink" width="65" height="65" viewBox="0 0 65 65">
  <defs>
    <rect id="rect-1" width="65" height="65" x="0" y="0"/>
    <mask id="mask-2" maskContentUnits="userSpaceOnUse" maskUnits="userSpaceOnUse">
      <rect width="65" height="65" x="0" y="0" fill="black"/>
      <use fill="white" xlink:href="#rect-1"/>
    </mask>
  </defs>
  <g>
    <use fill="none" xlink:href="#rect-1"/>
    <g mask="url(#mask-2)">
      <path fill="rgb(227,53,122)" fill-rule="evenodd" d="M13.4749999 64.99999534h38.0500002V28.40438878l-3.46641884-2.03761826V24.0846388H16.9414195v2.28213173l-3.4664196 2.03761826v36.59560656zm36.19586948-1.71159744H15.16790274V29.38244424l3.4664196-2.03761748V25.7962378h27.57012512v1.54858897l3.46642192 2.03761748V63.2883979z"/>
      <path fill="rgb(227,53,122)" fill-rule="evenodd" d="M27.26006331 24.9811908v-2.77115978c0-6.84639474 10.31864395-6.84639474 10.31864395 0v2.77115977h1.77351693v-2.77115977c0-9.21003102-13.8656778-9.21003102-13.8656778 0v2.77115977h1.77351692z"/>
      <path fill="rgb(227,53,122)" fill-rule="evenodd" d="M13.4749999 65h37.96938394V27.99686529H13.4749999V65zm36.19586948-1.71160055H15.16790274V29.78996774h34.50296664v33.49843171z"/>
      <path fill="rgb(227,53,122)" fill-rule="evenodd" d="M25.32531757 31.74608083c.56430084 0 1.04798728.4890282 1.04798728 1.0595611v3.34169266c0 8.06896523 12.17277528 8.06896523 12.17277528 0v-3.42319737c0-.5705329.48368644-1.05956109 1.04798728-1.05956109s1.04798728.4890282 1.04798728 1.0595611v3.42319736c0 10.840125-16.28411 10.840125-16.28411 0v-3.42319737c-.0806144-.5705329.40307204-.97805639.96737288-.97805639z"/>
    </g>
  </g>
</svg>