<svg xmlns="http://www.w3.org/2000/svg" xmlns:xlink="http://www.w3.org/1999/xlink" width="65" height="65" viewBox="0 0 65 65">
  <defs>
    <rect id="rect-1" width="65" height="65" x="0" y="0"/>
    <mask id="mask-2" maskContentUnits="userSpaceOnUse" maskUnits="userSpaceOnUse">
      <rect width="65" height="65" x="0" y="0" fill="black"/>
      <use fill="white" xlink:href="#rect-1"/>
    </mask>
    <path id="path-4" fill-rule="evenodd" d="M34.74306053 60.18739466c6.79995643-7.93205177 2.32628651-30.4804503 2.32628651-30.4804503H16.66942313L18.36943954 6H60.1534729v54.18739466H34.74306053z"/>
    <mask id="mask-5" maskContentUnits="userSpaceOnUse" maskUnits="userSpaceOnUse">
      <rect width="65" height="65" x="0" y="0" fill="black"/>
      <use fill="white" xlink:href="#path-4"/>
    </mask>
  </defs>
  <g>
    <use fill="none" xlink:href="#rect-1"/>
    <g mask="url(#mask-2)">
      <path fill="rgb(27,157,217)" fill-rule="evenodd" d="M19.62203435 65C4.76947207 61.43504269 4.76947207 52.96826907 4.85892362 40.66912283v-4.99091848c0-.3565175.08950617-.71292619.17895772-1.06944368.08950616-.35651749.35791544-.6239328.62632471-.89123933.26840927-.26741531.53681855-.44561966.89473398-.6239328.35791544-.17820435.71577627-.17820435 1.0736917-.17820435h24.42622684c.35791544 0 .71577627.08910217 1.0736917.17820435.35786083.17831314.62632472.35651749.894734.6239328.26840926.26730653.44736698.53472184.6263247.89123933.08945156.3565175.17890311.71292619.17890311 1.06944368v4.99091848C34.92201824 53.05737125 34.92201824 61.43504269 20.06940135 65h-.447367zm.62632472-17.55737125h13.5104613c.08950617-2.13899614.08950617-4.36709446.08950617-6.8624993V35.5c0-.26730652 0-.53472184-.08950616-.71292619-.08945156-.17831314-.26840928-.44561966-.447367-.6239328-.1789031-.17820435-.35786082-.3564087-.6262701-.44561967-.17895771-.08910217-.44736699-.17820434-.71583087-.17820434H20.24835907v13.90331175zm-.89467938 0H5.84316377c-.08945155-2.04989397-.08945155-4.36709446-.08945155-6.68429496v-5.08012944c0-.26730652 0-.53472184.08945155-.71292619.08950616-.26741531.26846388-.44561966.447367-.6239328.17895771-.17820435.44736698-.3564087.6263247-.44561967.17895772-.08910217.447367-.17820435.71577627-.17820435h11.72104795v13.72510741zm-.0000546 16.57702975V48.42297026H5.93261531c.53681855 7.57553429 2.95261123 12.92297025 13.42100976 15.59668824zm.89473398-15.59668824h13.42100975c-.53681854 7.57553429-3.04211739 12.92297025-13.42100975 15.59668824V48.42297026z"/>
      <g>
        <use fill="none" xlink:href="#path-4"/>
        <g mask="url(#mask-5)">
          <path fill="rgb(48,56,59)" fill-rule="evenodd" d="M43.51149726 10.72361196H24.54312588c-.89473399 0-1.70001642.35651749-2.32634113.9803415-.6262701.6239328-.98418554 1.42596116-.98418554 2.3172005V52.5227582c0 .89123933.35791544 1.69337648.98418554 2.3172005.62632471.623824 1.43160714.9803415 2.32634113.9803415h27.7367535c.89473398 0 1.6999618-.3565175 2.3262865-.9803415.62632472-.62382402.98424016-1.42596117.98424016-2.3172005V22.84444506c0-.17820435-.08950617-.3565175-.17895772-.44561966L43.95886425 10.9018163c-.08950617-.08910217-.26846389-.17820434-.447367-.17820434zm11.00521707 12.56645276H46.1956446c-.89473399 0-1.6999618-.35651749-2.32628652-.9803415-.6263247-.6239328-.98418554-1.42606996-.98418554-2.31730929v-8.1993583H24.45361971c-.6263247 0-1.16314326.26741532-1.5210587.62382401-.35786082.44561967-.53681854.9804503-.53681854 1.60427431v38.41239328c0 .6239328.26840927 1.15865465.62632471 1.51517214.35786083.3564087.98418554.623824 1.5210587.623824h27.7367535c.6262701 0 1.16314325-.2674153 1.52100408-.623824.35791544-.3565175.62632471-.9804503.62632471-1.51517214l.08950616-29.1434825zM44.0483158 20.0816249V12.5951928l9.6631161 9.62542826h-7.5157327c-.6263247 0-1.16319786-.26741532-1.52105869-.6239328-.35791544-.3565175-.6263247-.89123934-.6263247-1.51506335zm2.50524423 7.66452767H27.4956825c-.26840927 0-.53681855-.17820435-.53681855-.53472184 0-.26730652.26840928-.53472184.53681855-.53472184h19.05787754c.26840928 0 .53681855.26741532.53681855.53472184 0 .26741532-.26840927.53472184-.53681855.53472184zM27.4956825 33.45010603h20.57888163c.26846388 0 .53687316-.26730652.53687316-.53472184 0-.26730652-.26840928-.53472184-.53687316-.53472184H27.49568249c-.26840927 0-.53681855.26741532-.53681855.53472184 0 .26741532.26840928.53472184.53681855.53472184zm16.19471787 5.97136877H27.4956825c-.26840927 0-.53681855-.26730652-.53681855-.53472184 0-.26730652.26840928-.53472183.53681855-.53472183h16.19471787c.26840928 0 .53681855.26741531.53681855.53472183 0 .26741532-.26840927.53472184-.53681855.53472184zm-.80522782 5.16923162c0-1.15865464.447367-2.22809832 1.25264943-3.03023547.80522782-.80213716 1.87891952-1.336859 3.04206278-1.24775682 1.16314325 0 2.23683495.44561966 3.04211738 1.24775682.80522782.71303498 1.25259482 1.87158083 1.25259482 3.03023547 0 1.15854585-.447367 2.22809832-1.25259482 3.03023548-.71577626.80202836-1.87897413 1.24764802-3.04211738 1.24764802-1.16314326 0-2.23683496-.44561966-3.04206278-1.24764802-.80528243-.71303498-1.25264943-1.87168963-1.25264943-3.03023548zm4.38416376-3.20854861c-.89473398 0-1.6999618.35651749-2.32628651.9803415-.53681855.6239328-.89473399 1.42596116-.89473399 2.3172005 0 .89123932.35791544 1.69337647.98418554 2.31730928.62632471.62382401 1.43160714.9803415 2.32634112.9803415.89473399 0 1.6999618-.35651749 2.32628652-.9803415.6263247-.6239328.98424015-1.42606996.98424015-2.31730929 0-.89123933-.35791544-1.69326769-.98424015-2.3172005-.71577627-.623824-1.5210587-.9803415-2.41579268-.9803415z"/>
        </g>
      </g>
    </g>
  </g>
</svg>