<svg xmlns="http://www.w3.org/2000/svg" xmlns:xlink="http://www.w3.org/1999/xlink" width="65" height="65" viewBox="0 0 65 65">
  <defs>
    <rect id="rect-1" width="65" height="65" x="0" y="0"/>
    <mask id="mask-2" maskContentUnits="userSpaceOnUse" maskUnits="userSpaceOnUse">
      <rect width="65" height="65" x="0" y="0" fill="black"/>
      <use fill="white" xlink:href="#rect-1"/>
    </mask>
  </defs>
  <g>
    <use fill="none" xlink:href="#rect-1"/>
    <g mask="url(#mask-2)">
      <path fill-opacity="0" fill-rule="evenodd" stroke="rgb(52,99,172)" stroke-dasharray="0 0 0 0" stroke-linecap="butt" stroke-linejoin="miter" stroke-width="1.393" d="M49.6740755 24.77692308c-1.55015408.48461538-4.97681048 3.39230769-.65269646 8.56153846 4.24252697 5.25 1.7133282 11.14615384 1.7133282 11.14615384l-3.75300462 10.98461539-9.3009245-24.71538462s2.61078582-.16153846 3.01872111-.24230769c.40793528-.08076923.97904468-.40384615.89745763-1.05-.08158706-.72692308-.65269646-.8076923-1.22380586-.8076923-.24476117 0-3.50824345.24230769-6.77172573.24230769s-6.4453775-.2423077-6.69013868-.2423077c-.48952234 0-1.1422188 0-1.3053929.64615385-.08158706.56538462.1631741 1.13076923.81587056 1.21153846.65269646.08076923.24476117 0 2.855547.2423077 0 0 1.79491525 4.36153846 4.07935285 9.85384615l-5.711094 15.10384615-9.4640986-24.9576923s2.61078582-.16153847 3.0187211-.2423077c.40793529-.08076923.97904469-.40384615.89745763-1.05-.08158706-.72692308-.65269645-.8076923-1.22380585-.8076923-.24476118 0-3.50824346.24230769-6.77172574.24230769s-6.4453775-.2423077-6.69013867-.2423077c-.48952234 0-1.1422188 0-1.30539291.64615385-.08158706.56538462.16317411 1.13076923.81587057 1.21153846.65269645.08076923.24476117 0 2.855547.2423077 0 0 12.48281972 30.53076922 13.21710323 32.14615384.65269645 1.61538462 3.4266564 2.1 4.1609399-.08076923.5711094-1.61538462 5.05839754-13.16538462 7.4244222-19.1423077C38.0887134 52.23846155 42.0864792 62.01153848 42.49441447 62.9c.65269646 1.61538462 3.4266564 2.1 4.16093991-.08076923.81587057-2.1 5.22157165-13.16538462 8.97457627-23.1C58.975 30.75384615 55.87469183 23 49.6740755 24.77692307h0z"/>
    </g>
  </g>
</svg>